# File created by Blade
# Date/Time:  Wed Apr 08 17:12:22 2015
#---------------------------------------------------------
:version 1.10
:name HOM
:units
  mass 1.0
  length 1.000000
  angle deg
:documentation
     Acclaim Skeleton File
:root
   axis xyz
   order TX TY TZ RX RY RZ
   position 0.000000 0.000000 0.000000
   orientation 0 0 0
:bonedata
   begin
      id 1
      name Spine_dum
      direction 0.000000 1.000000 0.000000
      length 5.893853
      axis 0.0 0.0 0.0 xyz
   end
   begin
      id 2
      name LeftUpLeg_dum
      direction 1.000000 0.000000 0.000000
      length 3.697939
      axis 0.0 0.0 0.0 xyz
   end
   begin
      id 3
      name RightUpLeg_dum
      direction -1.000000 0.000000 0.000000
      length 3.697939
      axis 0.0 0.0 0.0 xyz
   end
   begin
      id 4
      name Spine
      direction 0.000000 1.000000 0.000000
      length 0.000000
      axis 0.0 0.0 0.0 xyz
      dof rx ry rz
   end
   begin
      id 5
      name Spine_dum1
      direction 0.000000 1.000000 0.000000
      length 16.447146
      axis 0.0 0.0 0.0 xyz
   end
   begin
      id 6
      name Spine_dum2
      direction 0.000000 1.000000 0.000000
      length 10.900383
      axis 0.0 0.0 0.0 xyz
   end
   begin
      id 7
      name Spine_dum3
      direction 0.000000 1.000000 0.000000
      length 10.900383
      axis 0.0 0.0 0.0 xyz
   end
   begin
      id 8
      name Head
      direction 0.000000 1.000000 0.000000
      length 4.527550
      axis 0.0 0.0 0.0 xyz
      dof rx ry rz
   end
   begin
      id 9
      name LeftShoulder
      direction 1.000000 0.000000 0.000000
      length 8.219464
      axis 0.0 0.0 -90.0 xyz
      dof rx ry rz
   end
   begin
      id 10
      name LeftArm
      direction 1.000000 0.000000 0.000000
      length 11.094937
      axis 0.0 0.0 -90.0 xyz
      dof rx ry rz
   end
   begin
      id 11
      name LeftForeArm
      direction 1.000000 0.000000 0.000000
      length 9.103875
      axis 0.0 0.0 -90.0 xyz
      dof ry rz rx
   end
   begin
      id 12
      name LeftHand
      direction 0.000000 0.000000 0.000000
      length 0.000000
      axis 0.0 0.0 -90.0 xyz
      dof rx ry rz
   end
   begin
      id 13
      name LeftHand_dum1
      direction 0.000000 0.000000 0.000000
      length 0.000000
      axis 0.0 0.0 -90.0 xyz
   end
   begin
      id 14
      name LeftHand_dum2
      direction 1.000000 0.000000 0.000000
      length 3.937000
      axis 0.0 0.0 -90.0 xyz
   end
   begin
      id 15
      name LeftHandThumb1
      direction 0.000000 0.000000 1.000000
      length 3.937000
      axis 0.0 0.0 -90.0 xyz
      dof rx rz ry
   end
   begin
      id 16
      name RightShoulder
      direction -1.000000 0.000000 0.000000
      length 8.219464
      axis 0.0 0.0 90.0 xyz
      dof rx ry rz
   end
   begin
      id 17
      name RightArm
      direction -1.000000 0.000000 0.000000
      length 11.094937
      axis 0.0 0.0 90.0 xyz
      dof rx ry rz
   end
   begin
      id 18
      name RightForeArm
      direction -1.000000 0.000000 0.000000
      length 9.103875
      axis 0.0 0.0 90.0 xyz
      dof ry rz rx
   end
   begin
      id 19
      name RightHand
      direction 0.000000 0.000000 0.000000
      length 0.000000
      axis 0.0 0.0 90.0 xyz
      dof rx ry rz
   end
   begin
      id 20
      name RightHand_dum1
      direction 0.000000 0.000000 0.000000
      length 0.000000
      axis 0.0 0.0 90.0 xyz
   end
   begin
      id 21
      name RightHand_dum2
      direction -1.000000 0.000000 0.000000
      length 3.937000
      axis 0.0 0.0 90.0 xyz
   end
   begin
      id 22
      name RightHandThumb1
      direction 0.000000 0.000000 1.000000
      length 3.937000
      axis 0.0 0.0 90.0 xyz
      dof rx rz ry
   end
   begin
      id 23
      name LeftUpLeg
      direction 0.000000 -1.000000 0.000000
      length 16.181467
      axis 0.0 0.0 0.0 xyz
      dof rx ry rz
   end
   begin
      id 24
      name LeftLeg
      direction 0.000000 -1.000000 0.000000
      length 16.501392
      axis 0.0 0.0 0.0 xyz
      dof rx ry rz
   end
   begin
      id 25
      name LeftFoot
      direction 0.000000 -0.258819 0.965926
      length 6.408245
      axis 15.0 0.0 0.0 xyz
      dof rx ry rz
   end
   begin
      id 26
      name LeftToeBase
      direction 0.000000 0.000000 1.000000
      length 2.952750
      axis 0.0 0.0 0.0 xyz
      dof rx ry rz
   end
   begin
      id 27
      name RightUpLeg
      direction 0.000000 -1.000000 0.000000
      length 16.181467
      axis 0.0 0.0 0.0 xyz
      dof rx ry rz
   end
   begin
      id 28
      name RightLeg
      direction 0.000000 -1.000000 0.000000
      length 16.501392
      axis 0.0 0.0 0.0 xyz
      dof rx ry rz
   end
   begin
      id 29
      name RightFoot
      direction 0.000000 -0.258819 0.965926
      length 6.408245
      axis 15.0 0.0 0.0 xyz
      dof rx ry rz
   end
   begin
      id 30
      name RightToeBase
      direction 0.000000 0.000000 1.000000
      length 2.952750
      axis 0.0 0.0 0.0 xyz
      dof rx ry rz
   end
:hierarchy
   begin
      root Spine_dum LeftUpLeg_dum RightUpLeg_dum
      Spine_dum Spine
      LeftUpLeg_dum LeftUpLeg
      RightUpLeg_dum RightUpLeg
      Spine Spine_dum1 Spine_dum2 Spine_dum3
      Spine_dum1 Head
      Spine_dum2 LeftShoulder
      Spine_dum3 RightShoulder
      LeftShoulder LeftArm
      LeftArm LeftForeArm
      LeftForeArm LeftHand
      LeftHand LeftHand_dum1 LeftHand_dum2
      LeftHand_dum1 LeftHandThumb1
      RightShoulder RightArm
      RightArm RightForeArm
      RightForeArm RightHand
      RightHand RightHand_dum1 RightHand_dum2
      RightHand_dum1 RightHandThumb1
      LeftUpLeg LeftLeg
      LeftLeg LeftFoot
      LeftFoot LeftToeBase
      RightUpLeg RightLeg
      RightLeg RightFoot
      RightFoot RightToeBase
   end

# File created by Blade
# Date/Time:  Wed Apr 08 17:12:12 2015
# Frame Rate: 120.000 fps
#------------------------------------------------------
:FULLY-SPECIFIED
:DEGREES
275
root 2.933743 38.577010 3.947113 23.173075 -18.077562 -20.428484
Spine -10.049640 8.063040 7.124620
Head 4.219483 16.180901 4.475353
LeftShoulder -5.527347 25.682036 13.675345
LeftArm 20.723386 33.294629 -74.916806
LeftForeArm 21.635014 0.000000 33.987472
LeftHand -15.217644 -0.000000 -9.175920
LeftHandThumb1 -26.253704 0.000000 33.147579
RightShoulder -24.363630 -55.656936 11.941960
RightArm 58.753339 -13.728007 45.156505
RightForeArm 43.995099 -0.000000 19.869563
RightHand -4.965852 0.000000 18.094497
RightHandThumb1 -24.326973 -0.000000 -32.862282
LeftUpLeg -31.928022 5.359931 15.402974
LeftLeg 33.450231 -0.000000 -0.000000
LeftFoot 2.123442 -0.796980 -16.925634
LeftToeBase -13.287839 -0.000000 0.000000
RightUpLeg -111.374206 -5.571050 20.269721
RightLeg 127.440020 -0.000000 -0.000000
RightFoot 3.613429 -3.519032 18.304721
RightToeBase 3.231757 -0.000000 -0.000000
276
root 2.912469 38.531128 3.941690 23.234503 -18.095138 -20.497015
Spine -9.978680 8.225986 6.760692
Head 4.209569 16.009979 4.948039
LeftShoulder -5.309389 25.511613 13.388950
LeftArm 21.669792 32.609517 -74.565712
LeftForeArm 21.976493 0.000000 33.288360
LeftHand -15.555350 -0.000000 -8.888089
LeftHandThumb1 -26.253704 0.000000 33.147579
RightShoulder -25.124807 -55.720276 13.010220
RightArm 58.547495 -13.936621 45.005005
RightForeArm 43.261763 -0.000000 19.081770
RightHand -5.029906 -0.000000 18.210703
RightHandThumb1 -24.326973 -0.000000 -32.862282
LeftUpLeg -31.808285 5.683215 15.463419
LeftLeg 33.101995 -0.000000 -0.000000
LeftFoot -0.456337 3.131843 -17.158510
LeftToeBase -10.335969 -0.000000 0.000000
RightUpLeg -111.371427 -5.352497 20.060446
RightLeg 127.628614 -0.000000 -0.000000
RightFoot 4.040480 -2.993320 18.535850
RightToeBase 3.187526 -0.000000 -0.000000
277
root 2.888368 38.469759 3.926162 23.865894 -18.078179 -20.799017
Spine -10.594750 8.361069 6.613060
Head 4.467555 15.902622 5.433206
LeftShoulder -5.198058 25.428674 13.077211
LeftArm 22.475577 32.097600 -74.228657
LeftForeArm 22.098561 -0.000000 32.729804
LeftHand -15.869182 -0.000000 -8.431841
LeftHandThumb1 -26.253704 0.000000 33.147579
RightShoulder -25.868235 -55.765759 13.997767
RightArm 58.412537 -14.333657 44.511058
RightForeArm 41.877733 -0.000000 18.302206
RightHand -5.055085 0.000000 18.262885
RightHandThumb1 -24.326973 -0.000000 -32.862282
LeftUpLeg -31.956712 6.170444 15.781715
LeftLeg 32.276910 -0.000000 -0.000000
LeftFoot -1.964368 6.336107 -17.913486
LeftToeBase -10.317741 -0.000000 0.000000
RightUpLeg -111.841126 -4.900392 20.115169
RightLeg 127.845416 -0.000000 -0.000000
RightFoot 4.545093 -2.346152 18.613562
RightToeBase 3.390234 -0.000000 -0.000000
278
root 2.865968 38.387180 3.903925 25.038483 -17.967446 -21.255851
Spine -11.916538 8.301901 6.693192
Head 5.015362 15.928771 5.844810
LeftShoulder -5.292330 25.448907 12.757351
LeftArm 23.131591 31.782777 -73.989145
LeftForeArm 22.143688 -0.000000 32.259699
LeftHand -16.121634 -0.000000 -7.938653
LeftHandThumb1 -26.253704 0.000000 33.147579
RightShoulder -26.391826 -55.870130 14.633917
RightArm 58.251889 -14.791353 44.107245
RightForeArm 40.311454 0.000000 17.581749
RightHand -5.061091 -0.000000 18.261335
RightHandThumb1 -24.326973 -0.000000 -32.862282
LeftUpLeg -32.524263 6.750895 16.307124
LeftLeg 31.469729 -0.000000 -0.000000
LeftFoot -2.744671 7.255349 -19.352204
LeftToeBase -10.800087 -0.000000 0.000000
RightUpLeg -112.840252 -4.314685 20.389533
RightLeg 128.100021 -0.000000 -0.000000
RightFoot 5.200967 -1.690915 18.984989
RightToeBase 3.325530 -0.000000 -0.000000
279
root 2.847920 38.278577 3.881318 26.317031 -17.746525 -21.680097
Spine -13.435099 7.970866 6.877801
Head 5.652300 16.132886 6.194184
LeftShoulder -5.530685 25.434866 12.464176
LeftArm 23.669412 31.672892 -73.791485
LeftForeArm 22.084954 -0.000000 31.844800
LeftHand -16.160536 -0.000000 -7.396076
LeftHandThumb1 -26.253704 0.000000 33.147579
RightShoulder -26.637137 -55.918298 14.901201
RightArm 58.096696 -15.317735 43.782868
RightForeArm 38.568035 -0.000000 16.941308
RightHand -4.850545 0.000000 18.681622
RightHandThumb1 -24.326973 -0.000000 -32.862282
LeftUpLeg -33.337344 7.318360 16.701631
LeftLeg 31.186350 -0.000000 -0.000000
LeftFoot -3.057967 5.669777 -17.359468
LeftToeBase -9.597402 -0.000000 0.000000
RightUpLeg -114.102735 -3.813081 20.685566
RightLeg 128.446344 -0.000000 -0.000000
RightFoot 5.924508 -1.134426 19.465573
RightToeBase 3.728043 -0.000000 -0.000000
280
root 2.842195 38.150694 3.863675 27.961568 -17.626773 -22.092378
Spine -15.485186 7.679604 7.043535
Head 6.461237 16.366829 6.523546
LeftShoulder -5.808839 25.531292 12.258792
LeftArm 24.079996 31.657342 -73.694475
LeftForeArm 22.124068 -0.000000 31.557849
LeftHand -16.168164 -0.000000 -6.828845
LeftHandThumb1 -26.253704 0.000000 33.147579
RightShoulder -26.892971 -56.126142 15.063941
RightArm 57.947343 -15.781552 43.650839
RightForeArm 36.535353 0.000000 16.398908
RightHand -5.048909 -0.000000 18.459073
RightHandThumb1 -24.326973 -0.000000 -32.862282
LeftUpLeg -34.509748 7.900691 16.887301
LeftLeg 31.095876 -0.000000 -0.000000
LeftFoot -3.438620 3.680402 -13.735320
LeftToeBase -11.803180 -0.000000 0.000000
RightUpLeg -115.749922 -3.151389 20.939090
RightLeg 128.817670 -0.000000 -0.000000
RightFoot 6.673481 -0.655076 20.023890
RightToeBase 4.121340 -0.000000 -0.000000
281
root 2.836275 37.993784 3.862956 29.198834 -17.522743 -22.431492
Spine -17.082187 7.224609 7.293246
Head 7.128210 16.730877 6.787980
LeftShoulder -6.108056 25.487848 12.102664
LeftArm 24.294675 31.599671 -73.765143
LeftForeArm 22.172385 -0.000000 31.380602
LeftHand -16.107280 -0.000000 -6.581192
LeftHandThumb1 -26.253704 0.000000 33.147579
RightShoulder -26.828898 -56.300979 14.927172
RightArm 57.674001 -16.083179 43.855254
RightForeArm 34.323920 -0.000000 15.939399
RightHand -4.915833 -0.000000 18.424509
RightHandThumb1 -24.326973 -0.000000 -32.862282
LeftUpLeg -35.243455 7.961827 17.193148
LeftLeg 31.034469 -0.000000 -0.000000
LeftFoot -4.907626 2.750591 -12.219799
LeftToeBase -12.899536 -0.000000 0.000000
RightUpLeg -117.149581 -2.665813 21.094795
RightLeg 129.281319 -0.000000 -0.000000
RightFoot 7.343330 -0.410869 20.273898
RightToeBase 3.679699 -0.000000 -0.000000
282
root 2.835444 37.822776 3.862575 30.359755 -17.328605 -22.720995
Spine -18.581959 6.636413 7.640445
Head 7.627494 17.243580 6.931052
LeftShoulder -6.454374 25.387355 11.922797
LeftArm 24.321729 31.370224 -73.991337
LeftForeArm 22.466162 0.000000 31.401347
LeftHand -15.976855 -0.000000 -6.599008
LeftHandThumb1 -26.253704 0.000000 33.147579
RightShoulder -26.737285 -56.511345 14.761318
RightArm 57.480731 -16.208348 44.102381
RightForeArm 32.303039 -0.000000 15.484617
RightHand -4.928619 0.000000 18.525900
RightHandThumb1 -24.326973 -0.000000 -32.862282
LeftUpLeg -35.979542 7.858811 17.561706
LeftLeg 30.868834 -0.000000 -0.000000
LeftFoot -7.086853 3.045480 -13.429170
LeftToeBase -10.180616 -0.000000 0.000000
RightUpLeg -118.549005 -2.333211 21.286769
RightLeg 129.774699 -0.000000 -0.000000
RightFoot 7.794278 -0.340402 20.298802
RightToeBase 3.098882 -0.000000 -0.000000
283
root 2.831437 37.637160 3.866488 31.164321 -17.144128 -22.992484
Spine -19.619233 6.060487 8.046513
Head 7.901498 17.719071 6.981082
LeftShoulder -6.665115 25.186112 11.816298
LeftArm 24.124830 30.929258 -74.395157
LeftForeArm 22.726489 -0.000000 31.725052
LeftHand -16.088393 -0.000000 -6.479677
LeftHandThumb1 -26.253704 0.000000 33.147579
RightShoulder -26.578050 -56.660541 14.582371
RightArm 57.271006 -16.236819 44.360775
RightForeArm 30.550033 -0.000000 15.070236
RightHand -4.951276 -0.000000 18.504002
RightHandThumb1 -24.326973 -0.000000 -32.862282
LeftUpLeg -36.538954 8.335453 17.591337
LeftLeg 30.701270 -0.000000 -0.000000
LeftFoot -8.869708 2.850024 -13.386092
LeftToeBase -8.974842 -0.000000 0.000000
RightUpLeg -119.619775 -2.124766 21.449114
RightLeg 130.284219 -0.000000 -0.000000
RightFoot 8.064295 -0.384986 20.434590
RightToeBase 2.435812 -0.000000 -0.000000
284
root 2.831000 37.443244 3.880534 31.599191 -17.050562 -23.218545
Spine -20.169183 5.549657 8.410400
Head 7.942941 18.158709 6.993373
LeftShoulder -6.850484 25.027739 11.688530
LeftArm 23.933026 30.214722 -74.870421
LeftForeArm 22.980922 -0.000000 32.203477
LeftHand -16.127243 -0.000000 -6.310631
LeftHandThumb1 -26.253704 0.000000 33.147579
RightShoulder -26.408987 -56.675708 14.467592
RightArm 57.113228 -16.246746 44.480110
RightForeArm 29.437483 -0.000000 14.538087
RightHand -4.932020 0.000000 18.408409
RightHandThumb1 -24.326973 -0.000000 -32.862282
LeftUpLeg -36.889994 8.978451 17.454767
LeftLeg 30.891911 -0.000000 -0.000000
LeftFoot -10.845000 2.226806 -13.020360
LeftToeBase -5.232434 -0.000000 0.000000
RightUpLeg -120.329156 -2.017496 21.556103
RightLeg 130.744385 -0.000000 -0.000000
RightFoot 8.158802 -0.518156 20.336827
RightToeBase 2.359340 -0.000000 -0.000000
